PathFileType	4	(x/y/z)	S04_PSF_T12.trc
DataRate	CameraRate	NumFrames	NumMarkers	Units	OrigDataRate	OrigDataStartFrame	OrigNumFrames
240	240	4	51	mm	240	320	426
Frame#	Time	Sternum			R.Acromium			L.Acromium			Top.Head			R.ASIS			L.ASIS			R.PSIS			L.PSIS			R.Great.Tro			L.Great.Tro			R.Iliac.Crest			L.Iliac.Crest			V.Sacral			R.Thigh.Upper.Post			R.Thigh.Lower.Ant			R.Thigh.Lower.Post			R.Thigh.Upper.Ant			R.Knee.Lat			R.Knee.Med			R.Shank.Upper.Post			R.Shank.Lower.Ant			R.Shank.Lower.Post			R.Shank.Upper.Ant			R.Ankle.Lat			R.Ankle.Med			R.Heel.Upper			R.Heel.Med			R.Heel.Lat			R.Toe.Lat			R.Toe.Med			R.Toe.Tip			L.Thigh.Upper.Post			L.Thigh.Lower.Ant			L.Thigh.Lower.Post			L.Thigh.Upper.Ant			L.Knee.Lat			L.Knee.Med			L.Shank.Upper.Post			L.Shank.Lower.Ant			L.Shank.Lower.Post			L.Shank.Upper.Ant			L.Ankle.Lat			L.Ankle.Med			L.Heel.Upper			L.Heel.Med			L.Heel.Lat			L.Toe.Lat			L.Toe.Med			L.Toe.Tip			Cervical.Spine			Back			
		X1	Y1	Z1	X2	Y2	Z2	X3	Y3	Z3	X4	Y4	Z4	X5	Y5	Z5	X6	Y6	Z6	X7	Y7	Z7	X8	Y8	Z8	X9	Y9	Z9	X10	Y10	Z10	X11	Y11	Z11	X12	Y12	Z12	X13	Y13	Z13	X14	Y14	Z14	X15	Y15	Z15	X16	Y16	Z16	X17	Y17	Z17	X18	Y18	Z18	X19	Y19	Z19	X20	Y20	Z20	X21	Y21	Z21	X22	Y22	Z22	X23	Y23	Z23	X24	Y24	Z24	X25	Y25	Z25	X26	Y26	Z26	X27	Y27	Z27	X28	Y28	Z28	X29	Y29	Z29	X30	Y30	Z30	X31	Y31	Z31	X32	Y32	Z32	X33	Y33	Z33	X34	Y34	Z34	X35	Y35	Z35	X36	Y36	Z36	X37	Y37	Z37	X38	Y38	Z38	X39	Y39	Z39	X40	Y40	Z40	X41	Y41	Z41	X42	Y42	Z42	X43	Y43	Z43	X44	Y44	Z44	X45	Y45	Z45	X46	Y46	Z46	X47	Y47	Z47	X48	Y48	Z48	X49	Y49	Z49	X50	Y50	Z50	X51	Y51	Z51	

320	1.3292	266.83	1275	224.61	147.96	1503.6	404.15	123.04	1481.9	53.56	149.42	1827.3	209.85	238.83	984.99	368.56	244.96	1012.6	119.85	29.027	1021.7	264.56	37.165	1030	183.75	148.03	901.65	425.19	138.31	924.69	49.382	151.2	1080.4	409.19	138.55	1088.3	73.665	12.128	984.3	221.26	173.41	642.93	419.69	260.22	568.07	396.88	183.69	553.13	406.46	255.82	677.97	413.34	199.39	487.69	400.65	195.85	484.9	269.11	-10.989	395.29	390.17	-26.569	291.14	356.6	-64.566	350.49	377.12	25.123	338.94	378.68	-147.09	272.55	358.12	-113.83	252.07	274	-200.73	300.15	292.12	-215.71	273.62	260.66	-229.95	281.61	324.83	-151.13	142.64	396.88	-111.61	103.85	288.56	-67.212	68.049	346.01	172.8	684.91	64.96	273.88	609.58	76.493	201.91	601.21	81.94	241.28	691.75	56.909	262.36	517.28	95.06	259.58	509.88	218.23	189.05	331.09	95.699	263.76	249.33	105.09	199.25	254.28	105.82	253.85	324.78	94.628	243.17	98.819	125.93	248.66	111.84	218.18	170.74	69.791	171.19	177.1	46.608	206.63	174.58	40.899	144.78	358.96	42.543	109.07	388.47	54.718	224.38	445.77	66.273	175.78	83.693	1546.6	235.81	7.5906	1287.8	225.78
321	1.3333	271.74	1275.8	224.6	152.62	1504.6	403.85	128.5	1482.9	53.211	154.89	1828.2	209.57	243.82	986.07	368.24	249.67	1013.4	119.54	33.952	1022.7	264.6	42.023	1031	183.76	153.44	902.76	425.13	142.64	925.47	49.293	156.08	1081.5	408.96	143.34	1089.2	73.455	17.004	985.28	221.31	181.67	644.18	419.57	269.16	570.22	396.48	192.82	554.48	406.24	263.67	680.04	413.04	209.13	489.3	400.29	205.51	486.61	268.73	-0.72878	395.97	389.52	-15.718	291.64	356.35	-54.044	350.84	376.55	35.659	339.75	378.33	-136.16	272.37	357.56	-102.69	251.87	273.62	-190.15	299.05	291.42	-204.76	272.19	260.09	-219.15	280.41	324.24	-138.72	142.9	397.24	-98.95	103.76	289.07	-54.101	68.878	346.74	175.72	685.58	64.914	276.28	609.5	76.464	204.26	601.69	81.871	244.25	691.94	56.888	264	517.26	95.035	261.1	509.84	218.21	189.85	331.36	95.794	264.29	249.33	105.09	199.8	254.5	105.94	254.64	324.8	94.629	243.26	98.917	126.06	248.78	111.87	218.28	170.75	69.858	171.27	177.11	46.636	206.68	174.61	41.002	144.83	358.98	42.53	109.04	388.53	54.511	224.39	445.82	65.997	175.77	88.8	1547.6	235.36	12.544	1288.8	225.18
322	1.3375	276.64	1276.7	224.6	157.27	1505.5	403.55	133.95	1483.8	52.874	160.37	1829.1	209.32	248.79	987.15	367.93	254.38	1014.2	119.23	38.876	1023.7	264.65	46.876	1032	183.8	158.84	903.88	425.09	146.94	926.23	49.218	160.95	1082.6	408.75	148.14	1090	73.25	21.878	986.27	221.39	189.87	645.46	419.47	278.02	572.41	396.07	201.89	555.89	406.04	271.46	682.14	412.75	218.8	490.95	399.93	215.06	488.37	268.36	9.5313	396.49	388.89	-4.7681	291.99	356.13	-43.477	350.98	376	46.245	340.44	377.98	-125.09	271.88	357.04	-91.429	251.45	273.25	-179.48	297.63	290.82	-193.7	270.45	259.59	-208.22	278.83	323.73	-126.06	142.81	397.52	-86.017	103.48	289.48	-40.666	69.53	347.32	178.61	686.23	64.897	278.61	609.43	76.427	206.56	602.18	81.8	247.18	692.12	56.866	265.57	517.24	95.006	262.59	509.8	218.19	190.61	331.63	95.884	264.79	249.33	105.09	200.32	254.73	106.05	255.4	324.83	94.622	243.35	99.013	126.19	248.9	111.89	218.36	170.75	69.928	171.35	177.12	46.667	206.72	174.63	41.106	144.87	359.01	42.514	109.01	388.58	54.31	224.4	445.86	65.726	175.76	93.894	1548.5	234.93	17.493	1289.8	224.58
323	1.3417	281.53	1277.5	224.61	161.9	1506.5	403.26	139.38	1484.8	52.548	165.84	1830	209.08	253.76	988.24	367.62	259.08	1014.9	118.92	43.799	1024.7	264.72	51.725	1032.9	183.84	164.23	905.02	425.05	151.23	927	49.157	165.81	1083.7	408.55	152.95	1090.9	73.051	26.749	987.27	221.48	198.02	646.78	419.39	286.79	574.63	395.66	210.88	557.34	405.86	279.18	684.26	412.46	228.39	492.63	399.57	224.52	490.18	268	19.792	396.84	388.29	6.2781	292.17	355.93	-32.866	350.91	375.48	56.88	341.01	377.65	-113.89	271.1	356.58	-80.051	250.81	272.91	-168.71	295.89	290.3	-182.54	268.4	259.17	-197.17	276.88	323.3	-113.16	142.39	397.72	-72.824	103.01	289.79	-26.925	70.004	347.76	181.47	686.87	64.912	280.89	609.35	76.384	208.8	602.67	81.727	250.07	692.3	56.844	267.09	517.23	94.974	264.05	509.77	218.17	191.32	331.91	95.974	265.25	249.35	105.07	200.81	254.96	106.16	256.11	324.87	94.607	243.44	99.109	126.32	249.01	111.92	218.44	170.76	70.001	171.42	177.13	46.702	206.76	174.66	41.211	144.91	359.03	42.495	108.97	388.64	54.116	224.4	445.91	65.458	175.74	98.975	1549.4	234.5	22.437	1290.8	224
